<?xml version="1.0" encoding="utf-8"?>
<!-- Generated by Mocodo 4.3.2 -->
<svg width="511" height="288" viewBox="0 0 511 288" xmlns="http://www.w3.org/2000/svg">
<rect x="0" y="0" width="511" height="288" fill="#f7f7f7" stroke="none" stroke-width="0"/>

<!-- Association POSSEDER -->
<g>
	<line x1="57" y1="220" x2="57" y2="77" stroke="#7fbc41" stroke-width="2"/>
	<line x1="186" y1="77" x2="57" y2="77" stroke="#7fbc41" stroke-width="2"/>
	<g>
		<path d="M84 52 a14 14 90 0 1 14 14 V77 h-82 V66 a14 14 90 0 1 14 -14" fill="#b8e186" stroke="#b8e186" stroke-width="0"/>
		<path d="M98 77 v11 a14 14 90 0 1 -14 14 H30 a14 14 90 0 1 -14 -14 V77 H82" fill="#e6f5d0" stroke="#e6f5d0" stroke-width="0"/>
		<rect x="16" y="52" width="82" height="50" fill="none" rx="14" stroke="#7fbc41" stroke-width="2"/>
		<line x1="16" y1="77" x2="98" y2="77" stroke="#7fbc41" stroke-width="1"/>
		<text x="24" y="69.75" fill="#000000" font-family="Verdana" font-size="12">POSSEDER</text>
	</g>
	<text x="62" y="153" fill="#c51b7d" font-family="Verdana" font-size="12">1,1</text>
	<text x="107" y="94" fill="#c51b7d" font-family="Verdana" font-size="12">0,N</text>
</g>

<!-- Association EFFECTUER -->
<g>
	<line x1="186" y1="77" x2="312" y2="77" stroke="#7fbc41" stroke-width="2"/>
	<line x1="444" y1="77" x2="312" y2="77" stroke="#7fbc41" stroke-width="2"/>
	<g>
		<path d="M340 52 a14 14 90 0 1 14 14 V77 h-84 V66 a14 14 90 0 1 14 -14" fill="#b8e186" stroke="#b8e186" stroke-width="0"/>
		<path d="M354 77 v11 a14 14 90 0 1 -14 14 H284 a14 14 90 0 1 -14 -14 V77 H84" fill="#e6f5d0" stroke="#e6f5d0" stroke-width="0"/>
		<rect x="270" y="52" width="84" height="50" fill="none" rx="14" stroke="#7fbc41" stroke-width="2"/>
		<line x1="270" y1="77" x2="354" y2="77" stroke="#7fbc41" stroke-width="1"/>
		<text x="277" y="69.75" fill="#000000" font-family="Verdana" font-size="12">EFFECTUER</text>
	</g>
	<text x="243" y="94" fill="#c51b7d" font-family="Verdana" font-size="12">0,N</text>
	<text x="360" y="94" fill="#c51b7d" font-family="Verdana" font-size="12">1,1</text>
</g>

<!-- Association PASSER -->
<g>
	<line x1="186" y1="77" x2="186" y2="220" stroke="#7fbc41" stroke-width="2"/>
	<line x1="312" y1="220" x2="186" y2="220" stroke="#7fbc41" stroke-width="2"/>
	<g>
		<path d="M221 186 a14 14 90 0 1 14 14 V211 h-98 V200 a14 14 90 0 1 14 -14" fill="#b8e186" stroke="#b8e186" stroke-width="0"/>
		<path d="M235 211 v29 a14 14 90 0 1 -14 14 H151 a14 14 90 0 1 -14 -14 V211 H98" fill="#e6f5d0" stroke="#e6f5d0" stroke-width="0"/>
		<rect x="137" y="186" width="98" height="68" fill="none" rx="14" stroke="#7fbc41" stroke-width="2"/>
		<line x1="137" y1="211" x2="235" y2="211" stroke="#7fbc41" stroke-width="1"/>
		<text x="162" y="203.75" fill="#000000" font-family="Verdana" font-size="12">PASSER</text>
		<text x="144" y="228.8" fill="#000000" font-family="Verdana" font-size="12">date_examen</text>
		<text x="144" y="245.8" fill="#000000" font-family="Verdana" font-size="12">resultat</text>
	</g>
	<text x="191" y="153" fill="#c51b7d" font-family="Verdana" font-size="12">0,N</text>
	<text x="251" y="237" fill="#c51b7d" font-family="Verdana" font-size="12">0,N</text>
</g>

<!-- Entity ATHLETES -->
<g>
	<g>
		<rect x="134" y="18" width="104" height="25" fill="#f1b6da" stroke="none" stroke-width="0" opacity="1"/>
		<rect x="134" y="43" width="104" height="93" fill="#fde0ef" stroke="none" stroke-width="0" opacity="1"/>
		<rect x="134" y="18" width="104" height="118" fill="none" stroke="#de77ae" stroke-width="2" opacity="1"/>
		<line x1="134" y1="43" x2="238" y2="43" stroke="#de77ae" stroke-width="1"/>
	</g>
	<text x="155" y="35.75" fill="#000000" font-family="Verdana" font-size="12">ATHLETES</text>
	<text x="139" y="60.8" fill="#000000" font-family="Verdana" font-size="12">id_athlete</text>
	<line x1="139" y1="63" x2="200" y2="63" stroke="#000000" stroke-width="1"/>
	<text x="139" y="77.8" fill="#000000" font-family="Verdana" font-size="12">nom</text>
	<text x="139" y="94.8" fill="#000000" font-family="Verdana" font-size="12">date_naissance</text>
	<text x="139" y="111.8" fill="#000000" font-family="Verdana" font-size="12">genre</text>
	<text x="139" y="128.8" fill="#000000" font-family="Verdana" font-size="12">sport</text>
</g>

<!-- Entity ENTRAINEMENTS -->
<g>
	<g>
		<rect x="386" y="9" width="116" height="25" fill="#f1b6da" stroke="none" stroke-width="0" opacity="1"/>
		<rect x="386" y="34" width="116" height="111" fill="#fde0ef" stroke="none" stroke-width="0" opacity="1"/>
		<rect x="386" y="9" width="116" height="136" fill="none" stroke="#de77ae" stroke-width="2" opacity="1"/>
		<line x1="386" y1="34" x2="502" y2="34" stroke="#de77ae" stroke-width="1"/>
	</g>
	<text x="391" y="26.75" fill="#000000" font-family="Verdana" font-size="12">ENTRAINEMENTS</text>
	<text x="391" y="51.8" fill="#000000" font-family="Verdana" font-size="12">id_entrainement</text>
	<line x1="391" y1="54" x2="491" y2="54" stroke="#000000" stroke-width="1"/>
	<text x="391" y="68.8" fill="#000000" font-family="Verdana" font-size="12">date_seance</text>
	<text x="391" y="85.8" fill="#000000" font-family="Verdana" font-size="12">type_seance</text>
	<text x="391" y="102.8" fill="#000000" font-family="Verdana" font-size="12">duree_minutes</text>
	<text x="391" y="119.8" fill="#000000" font-family="Verdana" font-size="12">rpe_session</text>
	<text x="391" y="136.8" fill="#000000" font-family="Verdana" font-size="12">intensite_gps</text>
</g>

<!-- Entity INDICATEURS -->
<g>
	<g>
		<rect x="9" y="161" width="96" height="25" fill="#f1b6da" stroke="none" stroke-width="0" opacity="1"/>
		<rect x="9" y="186" width="96" height="93" fill="#fde0ef" stroke="none" stroke-width="0" opacity="1"/>
		<rect x="9" y="161" width="96" height="118" fill="none" stroke="#de77ae" stroke-width="2" opacity="1"/>
		<line x1="9" y1="186" x2="105" y2="186" stroke="#de77ae" stroke-width="1"/>
	</g>
	<text x="14" y="178.75" fill="#000000" font-family="Verdana" font-size="12">INDICATEURS</text>
	<text x="14" y="203.8" fill="#000000" font-family="Verdana" font-size="12">id_mesure</text>
	<line x1="14" y1="206" x2="78" y2="206" stroke="#000000" stroke-width="1"/>
	<text x="14" y="220.8" fill="#000000" font-family="Verdana" font-size="12">date_mesure</text>
	<text x="14" y="237.8" fill="#000000" font-family="Verdana" font-size="12">rpe_charge</text>
	<text x="14" y="254.8" fill="#000000" font-family="Verdana" font-size="12">hrv_repos</text>
	<text x="14" y="271.8" fill="#000000" font-family="Verdana" font-size="12">poids_kg</text>
</g>

<!-- Entity TESTS -->
<g>
	<g>
		<rect x="278" y="178" width="68" height="25" fill="#f1b6da" stroke="none" stroke-width="0" opacity="1"/>
		<rect x="278" y="203" width="68" height="59" fill="#fde0ef" stroke="none" stroke-width="0" opacity="1"/>
		<rect x="278" y="178" width="68" height="84" fill="none" stroke="#de77ae" stroke-width="2" opacity="1"/>
		<line x1="278" y1="203" x2="346" y2="203" stroke="#de77ae" stroke-width="1"/>
	</g>
	<text x="292" y="195.75" fill="#000000" font-family="Verdana" font-size="12">TESTS</text>
	<text x="283" y="220.8" fill="#000000" font-family="Verdana" font-size="12">id_test</text>
	<line x1="283" y1="223" x2="325" y2="223" stroke="#000000" stroke-width="1"/>
	<text x="283" y="237.8" fill="#000000" font-family="Verdana" font-size="12">nom_test</text>
	<text x="283" y="254.8" fill="#000000" font-family="Verdana" font-size="12">categorie</text>
</g>
</svg>